<mxfile host="app.diagrams.net" modified="2023-11-06T09:52:50.099Z" agent="Mozilla/5.0 (Macintosh; Intel Mac OS X 10_15_7) AppleWebKit/605.1.15 (KHTML, like Gecko) Version/17.0.1 Safari/605.1.15" etag="83VfPV0_H_b_4m0JDMXq" version="22.0.8" type="github">
  <diagram id="C5RBs43oDa-KdzZeNtuy" name="Page-1">
    <mxGraphModel dx="1760" dy="620" grid="1" gridSize="10" guides="1" tooltips="1" connect="1" arrows="1" fold="1" page="1" pageScale="1" pageWidth="827" pageHeight="1169" math="0" shadow="0">
      <root>
        <mxCell id="WIyWlLk6GJQsqaUBKTNV-0" />
        <mxCell id="WIyWlLk6GJQsqaUBKTNV-1" parent="WIyWlLk6GJQsqaUBKTNV-0" />
        <mxCell id="WIyWlLk6GJQsqaUBKTNV-2" value="" style="rounded=0;html=1;jettySize=auto;orthogonalLoop=1;fontSize=11;endArrow=block;endFill=0;endSize=8;strokeWidth=1;shadow=0;labelBackgroundColor=none;edgeStyle=orthogonalEdgeStyle;entryX=0.5;entryY=0;entryDx=0;entryDy=0;" parent="WIyWlLk6GJQsqaUBKTNV-1" target="eA1Nt5mad9_NSeWrWCWu-1" edge="1">
          <mxGeometry relative="1" as="geometry">
            <mxPoint x="350" y="120" as="sourcePoint" />
            <mxPoint x="220" y="150" as="targetPoint" />
            <Array as="points">
              <mxPoint x="350" y="140" />
              <mxPoint x="180" y="140" />
            </Array>
          </mxGeometry>
        </mxCell>
        <mxCell id="WIyWlLk6GJQsqaUBKTNV-3" value="Thank you for showing your interest in SuperPC. This is SusanBotty.&lt;br&gt;1. How may I assist you today ?&lt;br&gt;2. How can I help you today ?&amp;nbsp;" style="rounded=1;whiteSpace=wrap;html=1;fontSize=12;glass=0;strokeWidth=1;shadow=0;" parent="WIyWlLk6GJQsqaUBKTNV-1" vertex="1">
          <mxGeometry x="160" y="60" width="380" height="60" as="geometry" />
        </mxCell>
        <mxCell id="eA1Nt5mad9_NSeWrWCWu-0" value="" style="rounded=0;html=1;jettySize=auto;orthogonalLoop=1;fontSize=11;endArrow=block;endFill=0;endSize=8;strokeWidth=1;shadow=0;labelBackgroundColor=none;edgeStyle=orthogonalEdgeStyle;exitX=0.5;exitY=1;exitDx=0;exitDy=0;entryX=0.5;entryY=0;entryDx=0;entryDy=0;" edge="1" parent="WIyWlLk6GJQsqaUBKTNV-1" source="WIyWlLk6GJQsqaUBKTNV-3" target="eA1Nt5mad9_NSeWrWCWu-2">
          <mxGeometry relative="1" as="geometry">
            <mxPoint x="364.98" y="160.00000000000006" as="sourcePoint" />
            <mxPoint x="320" y="270" as="targetPoint" />
            <Array as="points">
              <mxPoint x="350" y="200" />
            </Array>
          </mxGeometry>
        </mxCell>
        <mxCell id="eA1Nt5mad9_NSeWrWCWu-13" value="" style="edgeStyle=orthogonalEdgeStyle;rounded=0;orthogonalLoop=1;jettySize=auto;html=1;" edge="1" parent="WIyWlLk6GJQsqaUBKTNV-1" source="eA1Nt5mad9_NSeWrWCWu-1" target="eA1Nt5mad9_NSeWrWCWu-6">
          <mxGeometry relative="1" as="geometry" />
        </mxCell>
        <mxCell id="eA1Nt5mad9_NSeWrWCWu-1" value="Build New PC" style="rounded=1;whiteSpace=wrap;html=1;fontSize=12;glass=0;strokeWidth=1;shadow=0;" vertex="1" parent="WIyWlLk6GJQsqaUBKTNV-1">
          <mxGeometry x="140" y="200" width="80" height="20" as="geometry" />
        </mxCell>
        <mxCell id="eA1Nt5mad9_NSeWrWCWu-2" value="Buy PC Parts" style="rounded=1;whiteSpace=wrap;html=1;fontSize=12;glass=0;strokeWidth=1;shadow=0;" vertex="1" parent="WIyWlLk6GJQsqaUBKTNV-1">
          <mxGeometry x="310" y="200" width="80" height="20" as="geometry" />
        </mxCell>
        <mxCell id="eA1Nt5mad9_NSeWrWCWu-3" value="" style="rounded=0;html=1;jettySize=auto;orthogonalLoop=1;fontSize=11;endArrow=block;endFill=0;endSize=8;strokeWidth=1;shadow=0;labelBackgroundColor=none;edgeStyle=orthogonalEdgeStyle;entryX=0.5;entryY=0;entryDx=0;entryDy=0;" edge="1" parent="WIyWlLk6GJQsqaUBKTNV-1" target="eA1Nt5mad9_NSeWrWCWu-4">
          <mxGeometry relative="1" as="geometry">
            <mxPoint x="350" y="120" as="sourcePoint" />
            <mxPoint x="450" y="320" as="targetPoint" />
            <Array as="points">
              <mxPoint x="350" y="140" />
              <mxPoint x="530" y="140" />
            </Array>
          </mxGeometry>
        </mxCell>
        <mxCell id="eA1Nt5mad9_NSeWrWCWu-4" value="Other Matters&lt;br&gt;" style="rounded=1;whiteSpace=wrap;html=1;fontSize=12;glass=0;strokeWidth=1;shadow=0;arcSize=0;" vertex="1" parent="WIyWlLk6GJQsqaUBKTNV-1">
          <mxGeometry x="490" y="200" width="80" height="20" as="geometry" />
        </mxCell>
        <mxCell id="eA1Nt5mad9_NSeWrWCWu-10" value="" style="edgeStyle=orthogonalEdgeStyle;rounded=0;orthogonalLoop=1;jettySize=auto;html=1;entryX=0.5;entryY=0;entryDx=0;entryDy=0;" edge="1" parent="WIyWlLk6GJQsqaUBKTNV-1" source="eA1Nt5mad9_NSeWrWCWu-6" target="eA1Nt5mad9_NSeWrWCWu-7">
          <mxGeometry relative="1" as="geometry" />
        </mxCell>
        <mxCell id="eA1Nt5mad9_NSeWrWCWu-6" value="Great ! We have 3 base models for you to choose.&lt;br&gt;&lt;br&gt;Please click on ‘Catalog’ Button to see the details of each model. &lt;i&gt;&lt;u&gt;*Will be great if can generate pdf directly to telegram instead*&lt;/u&gt;&lt;/i&gt;" style="rounded=1;whiteSpace=wrap;html=1;fontSize=12;glass=0;strokeWidth=1;shadow=0;align=left;" vertex="1" parent="WIyWlLk6GJQsqaUBKTNV-1">
          <mxGeometry x="-155" y="290" width="340" height="60" as="geometry" />
        </mxCell>
        <mxCell id="eA1Nt5mad9_NSeWrWCWu-7" value="Tugboat" style="rounded=1;whiteSpace=wrap;html=1;fontSize=12;glass=0;strokeWidth=1;shadow=0;" vertex="1" parent="WIyWlLk6GJQsqaUBKTNV-1">
          <mxGeometry x="-200" y="430" width="80" height="40" as="geometry" />
        </mxCell>
        <mxCell id="eA1Nt5mad9_NSeWrWCWu-8" value="Frigate" style="rounded=1;whiteSpace=wrap;html=1;fontSize=12;glass=0;strokeWidth=1;shadow=0;" vertex="1" parent="WIyWlLk6GJQsqaUBKTNV-1">
          <mxGeometry x="-25" y="430" width="80" height="40" as="geometry" />
        </mxCell>
        <mxCell id="eA1Nt5mad9_NSeWrWCWu-9" value="Battlecruiser" style="rounded=1;whiteSpace=wrap;html=1;fontSize=12;glass=0;strokeWidth=1;shadow=0;arcSize=15;" vertex="1" parent="WIyWlLk6GJQsqaUBKTNV-1">
          <mxGeometry x="150" y="430" width="80" height="40" as="geometry" />
        </mxCell>
        <mxCell id="eA1Nt5mad9_NSeWrWCWu-11" value="" style="edgeStyle=orthogonalEdgeStyle;rounded=0;orthogonalLoop=1;jettySize=auto;html=1;entryX=0.5;entryY=0;entryDx=0;entryDy=0;" edge="1" parent="WIyWlLk6GJQsqaUBKTNV-1" target="eA1Nt5mad9_NSeWrWCWu-8">
          <mxGeometry relative="1" as="geometry">
            <mxPoint x="15" y="350" as="sourcePoint" />
            <mxPoint x="-160" y="430" as="targetPoint" />
            <Array as="points">
              <mxPoint x="15" y="430" />
            </Array>
          </mxGeometry>
        </mxCell>
        <mxCell id="eA1Nt5mad9_NSeWrWCWu-12" value="" style="edgeStyle=orthogonalEdgeStyle;rounded=0;orthogonalLoop=1;jettySize=auto;html=1;entryX=0.5;entryY=0;entryDx=0;entryDy=0;" edge="1" parent="WIyWlLk6GJQsqaUBKTNV-1" target="eA1Nt5mad9_NSeWrWCWu-9">
          <mxGeometry relative="1" as="geometry">
            <mxPoint x="15" y="350" as="sourcePoint" />
            <mxPoint x="190" y="390" as="targetPoint" />
            <Array as="points">
              <mxPoint x="15" y="390" />
              <mxPoint x="190" y="390" />
            </Array>
          </mxGeometry>
        </mxCell>
        <mxCell id="eA1Nt5mad9_NSeWrWCWu-15" value="&lt;b&gt;&lt;u&gt;Allow&lt;/u&gt;&lt;/b&gt;&lt;br&gt;&amp;nbsp;1. Using Voice to provide option&lt;br&gt;&amp;nbsp;2. asdf&lt;br&gt;&lt;br&gt;&lt;br&gt;&lt;b&gt;&lt;u&gt;Disallow&lt;/u&gt;&lt;/b&gt;&lt;br&gt;&amp;nbsp;1. Profanity Language&lt;br&gt;&amp;nbsp;2. Religion&lt;br&gt;&amp;nbsp;3. Sexual remark ~ Same as 1" style="rounded=0;whiteSpace=wrap;html=1;align=left;" vertex="1" parent="WIyWlLk6GJQsqaUBKTNV-1">
          <mxGeometry x="-280" y="120" width="200" height="130" as="geometry" />
        </mxCell>
        <mxCell id="eA1Nt5mad9_NSeWrWCWu-16" value="" style="edgeStyle=orthogonalEdgeStyle;rounded=0;orthogonalLoop=1;jettySize=auto;html=1;entryX=0.5;entryY=0;entryDx=0;entryDy=0;exitX=0.5;exitY=1;exitDx=0;exitDy=0;" edge="1" parent="WIyWlLk6GJQsqaUBKTNV-1" target="eA1Nt5mad9_NSeWrWCWu-17" source="eA1Nt5mad9_NSeWrWCWu-6">
          <mxGeometry relative="1" as="geometry">
            <mxPoint x="10" y="360" as="sourcePoint" />
            <mxPoint x="-290" y="430" as="targetPoint" />
            <Array as="points">
              <mxPoint x="15" y="390" />
              <mxPoint x="-320" y="390" />
            </Array>
          </mxGeometry>
        </mxCell>
        <mxCell id="eA1Nt5mad9_NSeWrWCWu-17" value="&amp;lt;&amp;lt;Hyperlink&amp;gt;&amp;gt;&lt;br&gt;Catalog" style="rounded=1;whiteSpace=wrap;html=1;fontSize=12;glass=0;strokeWidth=1;shadow=0;" vertex="1" parent="WIyWlLk6GJQsqaUBKTNV-1">
          <mxGeometry x="-390" y="430" width="140" height="40" as="geometry" />
        </mxCell>
      </root>
    </mxGraphModel>
  </diagram>
</mxfile>
